<mxfile host="app.diagrams.net" modified="2023-10-20T07:49:52.514Z" agent="Mozilla/5.0 (Windows NT 10.0; Win64; x64) AppleWebKit/537.36 (KHTML, like Gecko) Chrome/116.0.0.0 Safari/537.36" etag="hsoozkAqoa3JiC6pneQt" version="21.7.4" type="github">
  <diagram name="第 1 页" id="xZt0rgKf0xyPURXflzFH">
    <mxGraphModel dx="1863" dy="469" grid="1" gridSize="10" guides="1" tooltips="1" connect="1" arrows="1" fold="1" page="1" pageScale="1" pageWidth="827" pageHeight="1169" math="0" shadow="0">
      <root>
        <mxCell id="0" />
        <mxCell id="1" parent="0" />
        <mxCell id="77Dh7rvx6VXcCTubH6aV-5" value="&lt;p style=&quot;line-height: 0%;&quot;&gt;&lt;font style=&quot;font-size: 24px;&quot;&gt;&lt;b&gt;KDC&lt;/b&gt;&lt;/font&gt;&lt;/p&gt;" style="rounded=0;whiteSpace=wrap;html=1;spacingTop=0;spacingLeft=0;spacingBottom=369;" vertex="1" parent="1">
          <mxGeometry x="900" y="50" width="400" height="430" as="geometry" />
        </mxCell>
        <mxCell id="ulawDuMG_Z6RZev0Ew0s-1" value="&lt;font style=&quot;font-size: 24px;&quot;&gt;&lt;b&gt;client&lt;/b&gt;&lt;/font&gt;" style="rounded=0;whiteSpace=wrap;html=1;spacingBottom=300;" parent="1" vertex="1">
          <mxGeometry x="-400" y="110" width="590" height="350" as="geometry" />
        </mxCell>
        <mxCell id="ulawDuMG_Z6RZev0Ew0s-2" value="&lt;br&gt;&lt;br&gt;&lt;br&gt;&lt;br&gt;AS" style="rounded=0;whiteSpace=wrap;html=1;" parent="1" vertex="1">
          <mxGeometry x="935" y="110" width="345" height="90" as="geometry" />
        </mxCell>
        <mxCell id="ulawDuMG_Z6RZev0Ew0s-3" value="&lt;br&gt;&lt;br&gt;&lt;br&gt;&lt;br&gt;TGS" style="rounded=0;whiteSpace=wrap;html=1;" parent="1" vertex="1">
          <mxGeometry x="940" y="230" width="310" height="120" as="geometry" />
        </mxCell>
        <mxCell id="ulawDuMG_Z6RZev0Ew0s-4" value="" style="endArrow=classic;html=1;rounded=0;entryX=0.02;entryY=0.189;entryDx=0;entryDy=0;entryPerimeter=0;exitX=1;exitY=0.5;exitDx=0;exitDy=0;" parent="1" source="ulawDuMG_Z6RZev0Ew0s-9" target="ulawDuMG_Z6RZev0Ew0s-2" edge="1">
          <mxGeometry width="50" height="50" relative="1" as="geometry">
            <mxPoint x="190" y="127" as="sourcePoint" />
            <mxPoint x="540" y="133" as="targetPoint" />
          </mxGeometry>
        </mxCell>
        <mxCell id="ulawDuMG_Z6RZev0Ew0s-5" value="1、Client Name&lt;br&gt;2、Client Master Key(NTLM hash)加密过的timestamp" style="edgeLabel;html=1;align=center;verticalAlign=middle;resizable=0;points=[];" parent="ulawDuMG_Z6RZev0Ew0s-4" vertex="1" connectable="0">
          <mxGeometry x="0.1154" y="3" relative="1" as="geometry">
            <mxPoint as="offset" />
          </mxGeometry>
        </mxCell>
        <mxCell id="ulawDuMG_Z6RZev0Ew0s-6" value="1、根据Client Name查找Matster Key(密码hash)&lt;br&gt;2、利用该Master Key解密timestamp，并进行合法性验证（只要解密成功就说明了Client密码正确）。" style="rounded=0;whiteSpace=wrap;html=1;" parent="1" vertex="1">
          <mxGeometry x="950" y="116" width="320" height="60" as="geometry" />
        </mxCell>
        <mxCell id="ulawDuMG_Z6RZev0Ew0s-7" value="" style="endArrow=classic;html=1;rounded=0;exitX=0;exitY=0.75;exitDx=0;exitDy=0;entryX=1;entryY=0.25;entryDx=0;entryDy=0;" parent="1" source="ulawDuMG_Z6RZev0Ew0s-2" target="ulawDuMG_Z6RZev0Ew0s-10" edge="1">
          <mxGeometry width="50" height="50" relative="1" as="geometry">
            <mxPoint x="390" y="270" as="sourcePoint" />
            <mxPoint x="440" y="220" as="targetPoint" />
          </mxGeometry>
        </mxCell>
        <mxCell id="ulawDuMG_Z6RZev0Ew0s-8" value="1、使用Master Key加密过的Session Key(短期密钥)&lt;br&gt;2、使用KDC自己的NTLM加密过的TGT(只有KDC可以解密)" style="edgeLabel;html=1;align=center;verticalAlign=middle;resizable=0;points=[];" parent="ulawDuMG_Z6RZev0Ew0s-7" vertex="1" connectable="0">
          <mxGeometry x="-0.0276" y="3" relative="1" as="geometry">
            <mxPoint as="offset" />
          </mxGeometry>
        </mxCell>
        <mxCell id="ulawDuMG_Z6RZev0Ew0s-9" value="输入账户密码" style="rounded=0;whiteSpace=wrap;html=1;" parent="1" vertex="1">
          <mxGeometry x="80" y="116" width="80" height="30" as="geometry" />
        </mxCell>
        <mxCell id="ulawDuMG_Z6RZev0Ew0s-10" value="1.使用Master Key(密码)解密获得Session Key&lt;br&gt;2、先留着TGT" style="rounded=0;whiteSpace=wrap;html=1;" parent="1" vertex="1">
          <mxGeometry x="-90" y="160" width="260" height="60" as="geometry" />
        </mxCell>
        <mxCell id="ulawDuMG_Z6RZev0Ew0s-11" value="" style="endArrow=classic;html=1;rounded=0;exitX=0.999;exitY=0.446;exitDx=0;exitDy=0;entryX=0;entryY=0.25;entryDx=0;entryDy=0;exitPerimeter=0;" parent="1" source="ulawDuMG_Z6RZev0Ew0s-1" target="ulawDuMG_Z6RZev0Ew0s-3" edge="1">
          <mxGeometry width="50" height="50" relative="1" as="geometry">
            <mxPoint x="390" y="270" as="sourcePoint" />
            <mxPoint x="440" y="220" as="targetPoint" />
          </mxGeometry>
        </mxCell>
        <mxCell id="ulawDuMG_Z6RZev0Ew0s-12" value="1、使用 Session Key加密的Client info（Client标识等信息）和 Timestamp（时间戳）&lt;br&gt;2、TGT" style="edgeLabel;html=1;align=center;verticalAlign=middle;resizable=0;points=[];" parent="ulawDuMG_Z6RZev0Ew0s-11" vertex="1" connectable="0">
          <mxGeometry x="0.1511" y="-2" relative="1" as="geometry">
            <mxPoint x="-35" y="-2" as="offset" />
          </mxGeometry>
        </mxCell>
        <mxCell id="ulawDuMG_Z6RZev0Ew0s-13" value="1、通过自己的NTLM HASH解密TGT得到Session Key&lt;br&gt;2、通过Session Key解密得到Client info进行验证" style="rounded=0;whiteSpace=wrap;html=1;" parent="1" vertex="1">
          <mxGeometry x="951" y="240" width="290" height="60" as="geometry" />
        </mxCell>
        <mxCell id="ulawDuMG_Z6RZev0Ew0s-14" value="" style="endArrow=classic;html=1;rounded=0;entryX=1;entryY=0.5;entryDx=0;entryDy=0;exitX=-0.025;exitY=0.868;exitDx=0;exitDy=0;exitPerimeter=0;" parent="1" source="ulawDuMG_Z6RZev0Ew0s-3" target="ulawDuMG_Z6RZev0Ew0s-16" edge="1">
          <mxGeometry width="50" height="50" relative="1" as="geometry">
            <mxPoint x="390" y="270" as="sourcePoint" />
            <mxPoint x="330" y="380" as="targetPoint" />
          </mxGeometry>
        </mxCell>
        <mxCell id="ulawDuMG_Z6RZev0Ew0s-15" value="1、使用Session Key（KDC-Client，也就是上述用的Session Key）加密过的用于 Client 和 Server 通信的Session Key （Server-Client ）&lt;br&gt;2、使用 Server 的 Master Key（NTLM hash） 进行加密的Ticket" style="edgeLabel;html=1;align=center;verticalAlign=middle;resizable=0;points=[];" parent="ulawDuMG_Z6RZev0Ew0s-14" vertex="1" connectable="0">
          <mxGeometry x="-0.5346" y="-4" relative="1" as="geometry">
            <mxPoint x="-195" y="4" as="offset" />
          </mxGeometry>
        </mxCell>
        <mxCell id="ulawDuMG_Z6RZev0Ew0s-16" value="1、使用Session Key（KDC-Client）进行解密获得用于与Server通信的&lt;b style=&quot;color: rgb(255, 0, 0);&quot;&gt;Session Key （Server-Client&lt;/b&gt;&lt;font color=&quot;#ff0000&quot;&gt;）&lt;/font&gt;&lt;br&gt;2、先留着&lt;font color=&quot;#ff0000&quot;&gt;&lt;b&gt;Ticket&lt;/b&gt;&lt;/font&gt;" style="rounded=0;whiteSpace=wrap;html=1;" parent="1" vertex="1">
          <mxGeometry x="-390" y="300" width="560" height="60" as="geometry" />
        </mxCell>
        <mxCell id="ulawDuMG_Z6RZev0Ew0s-17" value="&lt;br&gt;&lt;br&gt;&lt;br&gt;&lt;br&gt;Server" style="rounded=0;whiteSpace=wrap;html=1;" parent="1" vertex="1">
          <mxGeometry x="940" y="370" width="340" height="100" as="geometry" />
        </mxCell>
        <mxCell id="77Dh7rvx6VXcCTubH6aV-1" value="" style="endArrow=classic;html=1;rounded=0;exitX=1.005;exitY=0.826;exitDx=0;exitDy=0;exitPerimeter=0;entryX=0;entryY=0.25;entryDx=0;entryDy=0;" edge="1" parent="1" source="ulawDuMG_Z6RZev0Ew0s-1" target="ulawDuMG_Z6RZev0Ew0s-17">
          <mxGeometry width="50" height="50" relative="1" as="geometry">
            <mxPoint x="530" y="270" as="sourcePoint" />
            <mxPoint x="580" y="220" as="targetPoint" />
          </mxGeometry>
        </mxCell>
        <mxCell id="77Dh7rvx6VXcCTubH6aV-4" value="1、使用Session Key（Server-Client）加密的Client info与Timestamp&amp;nbsp;&lt;br&gt;2、Ticket" style="edgeLabel;html=1;align=center;verticalAlign=middle;resizable=0;points=[];" vertex="1" connectable="0" parent="77Dh7rvx6VXcCTubH6aV-1">
          <mxGeometry x="-0.0172" y="3" relative="1" as="geometry">
            <mxPoint as="offset" />
          </mxGeometry>
        </mxCell>
        <mxCell id="77Dh7rvx6VXcCTubH6aV-7" value="1、使用自己的 Master Key解密用户请求中的 Ticket 得到 Session Key（Server-Client）&lt;br&gt;2、使用 Session Key（Server-Client ）解密Client加密后的信息（Client info与Timestamp）进行验证" style="rounded=0;whiteSpace=wrap;html=1;" vertex="1" parent="1">
          <mxGeometry x="945" y="378" width="330" height="60" as="geometry" />
        </mxCell>
      </root>
    </mxGraphModel>
  </diagram>
</mxfile>
